<svg width="20" height="14" viewBox="0 0 20 14" fill="none" xmlns="http://www.w3.org/2000/svg">
              <path d="M9.30609 4.08066C9.68228 3.99158 10 4.3134 10 4.7V5.7C10 6.41797 10.5821 7 11.3 7H12.3C12.6866 7 13.0085 7.31775 12.9194 7.69395C12.6062 9.01621 11.418 10 10 10C8.34318 10 7.00003 8.65685 7.00003 7C7.00003 5.58201 7.98382 4.39379 9.30609 4.08066Z" fill="#505050"/>
              <path fill-rule="evenodd" clip-rule="evenodd" d="M10 0C5.11931 0 1.86625 3.65464 0.43688 5.68254C-0.126096 6.48125 -0.126095 7.51875 0.43688 8.31746C1.86626 10.3454 5.11931 14 10 14C14.8808 14 18.1338 10.3454 19.5632 8.31746C20.1262 7.51875 20.1262 6.48124 19.5632 5.68254C18.1338 3.65464 14.8808 0 10 0ZM3.70874 3.92728C2.76185 4.77768 2.02109 5.69143 1.49945 6.4315C1.25305 6.78108 1.25305 7.21892 1.49945 7.5685C2.02109 8.30857 2.76185 9.22232 3.70873 10.0727C3.25483 9.14511 3.00004 8.10231 3.00004 7C3.00004 5.89769 3.25483 4.85489 3.70874 3.92728ZM10 12.7C6.85202 12.7 4.30004 10.148 4.30004 7C4.30004 3.85198 6.85202 1.3 10 1.3C13.1481 1.3 15.7 3.85198 15.7 7C15.7 10.148 13.1481 12.7 10 12.7ZM16.2913 3.92728C17.2382 4.77768 17.979 5.69143 18.5006 6.4315C18.747 6.78108 18.747 7.21892 18.5006 7.5685C17.979 8.30857 17.2382 9.22232 16.2913 10.0727C16.7452 9.14511 17 8.10231 17 7C17 5.89769 16.7452 4.85489 16.2913 3.92728Z" fill="#505050"/>
            </svg>