<svg width="20" height="18" viewBox="0 0 20 18" fill="none" xmlns="http://www.w3.org/2000/svg">
              <path fill-rule="evenodd" clip-rule="evenodd" d="M7.82765 0C5.16261 0 3.09129 2.32002 3.3922 4.96802L3.65424 7.27398C3.89544 9.39656 5.69141 11 7.82765 11C9.9639 11 11.7599 9.39657 12.0011 7.27398L12.2631 4.96803C12.564 2.32002 10.4927 0 7.82765 0ZM10.7094 7.1272L10.9714 4.82124C11.1847 2.94439 9.71659 1.3 7.82765 1.3C5.93872 1.3 4.47061 2.94439 4.68389 4.82124L4.94593 7.1272C5.11248 8.59283 6.35258 9.7 7.82765 9.7C9.30272 9.7 10.5428 8.59283 10.7094 7.1272Z" fill="#505050"/>
              <path fill-rule="evenodd" clip-rule="evenodd" d="M5.97402 12C3.16182 12 0.726944 13.9532 0.116894 16.6984L0.0169532 17.1481C-0.0801933 17.5853 0.25246 18 0.700284 18H14.955C15.4028 18 15.7355 17.5853 15.6384 17.1481L15.5384 16.6984C14.9284 13.9532 12.4935 12 9.68129 12H5.97402ZM14.198 16.7C13.6229 14.6982 11.7872 13.3 9.68129 13.3H5.97402C3.86815 13.3 2.03238 14.6982 1.45729 16.7H14.198Z" fill="#505050"/>
              <path d="M12.1723 11C11.7922 11 11.6567 10.5382 11.8947 10.2419C11.9416 10.1835 11.9873 10.1241 12.0319 10.0638C12.196 9.84152 12.4473 9.7003 12.7187 9.64845C13.9438 9.41439 14.9086 8.40758 15.0541 7.1272L15.3161 4.82124C15.497 3.22931 14.4683 1.80463 12.9991 1.40876C12.6467 1.31378 12.3183 1.12676 12.0889 0.84284C12.0392 0.781436 11.9884 0.721054 11.9363 0.661734C11.7152 0.409917 11.8373 0 12.1723 0C14.8374 0 16.9087 2.32002 16.6078 4.96803L16.3458 7.27398C16.1046 9.39657 14.3086 11 12.1723 11Z" fill="#505050"/>
              <path d="M17.3143 18C16.9716 18 16.7274 17.6484 16.7236 17.3058C16.7202 16.9919 16.9448 16.7 17.2587 16.7H18.5427C18.1057 15.1788 16.9407 14.0062 15.4824 13.5308C15.2738 13.4628 15.0977 13.3644 14.9626 13.1914C14.5991 12.726 14.9161 12.0365 15.4889 12.1804C17.65 12.7232 19.382 14.4437 19.8831 16.6984L19.983 17.1481C20.0802 17.5853 19.7475 18 19.2997 18H17.3143Z" fill="#505050"/>
            </svg>