<svg width="18" height="18" viewBox="0 0 18 18" fill="none" xmlns="http://www.w3.org/2000/svg">
              <path fill-rule="evenodd" clip-rule="evenodd" d="M13.0001 9.00001C13.0001 11.2092 11.2092 13 9.00009 13C6.79095 13 5.00009 11.2092 5.00009 9.00001C5.00009 6.79087 6.79095 5.00001 9.00009 5.00001C11.2092 5.00001 13.0001 6.79087 13.0001 9.00001ZM11.7001 9.00001C11.7001 10.4912 10.4913 11.7 9.00009 11.7C7.50892 11.7 6.30009 10.4912 6.30009 9.00001C6.30009 7.50885 7.50892 6.30001 9.00009 6.30001C10.4913 6.30001 11.7001 7.50885 11.7001 9.00001Z" fill="#505050"/>
              <path fill-rule="evenodd" clip-rule="evenodd" d="M7.98315 0.00494385C7.09743 0.00494385 6.34736 0.658095 6.22559 1.5354C6.07458 2.6234 4.93986 3.27853 3.92212 2.86531C3.10146 2.53211 2.16078 2.85512 1.71793 3.62217L0.761191 5.27928C0.323707 6.03703 0.503885 7.00057 1.18562 7.54902C2.06722 8.25827 2.05272 9.62605 1.14762 10.3307C0.448735 10.8748 0.258123 11.851 0.700981 12.618L1.65772 14.2751C2.0952 15.0329 3.01974 15.3586 3.83558 15.0424C4.89061 14.6336 6.06789 15.33 6.22559 16.4662C6.34736 17.3435 7.09743 17.9966 7.98315 17.9966H9.89662C10.7716 17.9966 11.5159 17.3588 11.6501 16.4942C11.8324 15.3184 13.0551 14.6125 14.1646 15.0424C14.9804 15.3586 15.905 15.0329 16.3425 14.2751L17.2992 12.618C17.7421 11.851 17.5514 10.8748 16.8526 10.3307C15.9475 9.62605 15.933 8.25827 16.8146 7.54902C17.4963 7.00057 17.6765 6.03703 17.239 5.27929L16.2823 3.62217C15.8394 2.85512 14.8987 2.53211 14.0781 2.86531C13.0153 3.29682 11.8235 2.62549 11.6501 1.50738C11.5159 0.642753 10.7716 0.00494385 9.89662 0.00494385H7.98315ZM7.51325 1.71413C7.5458 1.47957 7.74634 1.30494 7.98315 1.30494L9.89662 1.30494C10.1306 1.30494 10.3296 1.47547 10.3654 1.70663C10.6698 3.66888 12.7417 4.81096 14.5671 4.06981C14.7865 3.98073 15.038 4.06709 15.1564 4.27217L16.1132 5.92928C16.2301 6.13187 16.182 6.38948 15.9997 6.53612C14.4525 7.78082 14.4994 10.1462 16.054 11.3565C16.2408 11.502 16.2918 11.7629 16.1734 11.968L15.2166 13.6251C15.0997 13.8277 14.8525 13.9148 14.6344 13.8303C12.7508 13.1003 10.675 14.2988 10.3654 16.295C10.3296 16.5261 10.1305 16.6966 9.89662 16.6966H7.98315C7.74634 16.6966 7.5458 16.522 7.51325 16.2875C7.24239 14.336 5.21735 13.1127 3.36582 13.8303C3.1477 13.9148 2.90052 13.8277 2.78355 13.6251L1.82681 11.968C1.70841 11.7629 1.75937 11.502 1.94623 11.3565C3.50078 10.1462 3.54768 7.78082 2.0005 6.53612C1.81823 6.38948 1.77006 6.13187 1.88702 5.92928L2.84376 4.27217C2.96216 4.06709 3.21366 3.98073 3.43307 4.06981C5.23581 4.80175 7.24576 3.64132 7.51325 1.71413Z" fill="#505050"/>
            </svg>